<svg xmlns="http://www.w3.org/2000/svg" xmlns:xlink="http://www.w3.org/1999/xlink" width="1200" zoomAndPan="magnify" viewBox="0 0 900 472.499986" height="630" preserveAspectRatio="xMidYMid meet" version="1.0"><defs><clipPath id="6be6522fae"><path d="M 0.476562 0 L 899.523438 0 L 899.523438 472 L 0.476562 472 Z M 0.476562 0 " clip-rule="nonzero"/></clipPath><clipPath id="c2cd0fbf3b"><path d="M 427.328125 201 L 597 201 L 597 440 L 427.328125 440 Z M 427.328125 201 " clip-rule="nonzero"/></clipPath><clipPath id="c87f354995"><path d="M 427.328125 2.136719 L 899.328125 2.136719 L 899.328125 472 L 427.328125 472 Z M 427.328125 2.136719 " clip-rule="nonzero"/></clipPath></defs><g clip-path="url(#6be6522fae)"><path fill="#ffffff" d="M 0.476562 0 L 899.523438 0 L 899.523438 472 L 0.476562 472 Z M 0.476562 0 " fill-opacity="1" fill-rule="nonzero"/><path fill="#ffffff" d="M 0.476562 0 L 899.523438 0 L 899.523438 472 L 0.476562 472 Z M 0.476562 0 " fill-opacity="1" fill-rule="nonzero"/></g><g clip-path="url(#c2cd0fbf3b)"><path fill="#000000" d="M 491.863281 278.089844 C 469.289062 298.644531 454.242188 331.359375 454.242188 331.359375 C 450.1875 309.066406 433.40625 308.199219 427.617188 308.777344 L 427.617188 319.78125 C 427.90625 319.78125 428.484375 319.78125 428.773438 319.492188 C 439.480469 318.332031 444.980469 330.203125 446.136719 339.175781 C 450.769531 369.574219 444.691406 403.449219 427.617188 429.503906 L 427.617188 439.636719 C 439.191406 424.003906 489.257812 393.605469 510.960938 380.578125 C 534.402344 366.679688 589.097656 336.570312 592.28125 302.410156 C 595.464844 268.246094 569.128906 236.113281 569.128906 236.113281 L 596.621094 201.949219 C 556.6875 219.609375 514.433594 257.535156 491.863281 278.089844 Z M 545.6875 305.882812 C 532.957031 333.386719 501.121094 340.914062 467.550781 328.464844 L 478.550781 311.671875 C 478.550781 311.671875 503.4375 327.308594 522.828125 307.332031 C 542.214844 287.644531 529.773438 259.273438 529.773438 259.273438 L 544.242188 248.5625 C 544.242188 248.5625 559.578125 275.484375 545.6875 305.882812 Z M 545.6875 305.882812 " fill-opacity="1" fill-rule="nonzero"/></g><g clip-path="url(#c87f354995)"><path fill="#000000" d="M 427.617188 2.1875 L 427.617188 104.964844 C 482.890625 97.726562 523.117188 119.152344 523.117188 119.152344 L 494.753906 181.105469 C 494.753906 181.105469 529.484375 139.707031 544.242188 110.175781 C 559 80.644531 609.355469 70.222656 609.355469 70.222656 L 667.234375 6.242188 C 679.097656 113.359375 586.78125 180.816406 586.78125 180.816406 C 630.191406 163.445312 655.367188 115.964844 655.367188 115.964844 C 659.132812 163.734375 605.304688 199.632812 605.304688 199.632812 C 659.710938 288.800781 614.855469 372.179688 614.855469 372.179688 C 641.765625 399.972656 651.605469 470.035156 651.605469 470.035156 C 651.605469 470.035156 615.433594 440.503906 557.554688 431.242188 C 505.171875 422.84375 439.769531 439.347656 427.328125 442.53125 L 427.328125 474.085938 L 899.328125 474.085938 L 899.328125 2.1875 Z M 427.617188 2.1875 " fill-opacity="1" fill-rule="nonzero"/></g><path fill="#000000" d="M 427.894531 100.679688 L 427.894531 308.066406 C 427.894531 308.066406 403.480469 303.476562 398.449219 330.878906 C 398.449219 330.878906 383.058594 297.699219 360.269531 276.8125 C 337.480469 255.925781 294.421875 217.261719 253.875 199.484375 L 281.84375 234.148438 C 281.84375 234.148438 255.058594 266.738281 258.167969 301.550781 C 261.273438 336.214844 316.914062 366.730469 340.886719 380.949219 C 364.859375 395.171875 422.714844 430.425781 427.894531 444.648438 C 427.894531 444.648438 352.28125 423.019531 293.386719 432.5 C 234.492188 441.980469 197.792969 471.90625 197.792969 471.90625 C 197.792969 471.90625 207.707031 400.949219 235.082031 372.507812 C 235.082031 372.507812 189.652344 287.773438 244.847656 197.113281 C 244.847656 197.113281 190.097656 160.378906 193.945312 111.9375 C 193.945312 111.9375 219.542969 160.082031 263.640625 177.855469 C 263.640625 177.855469 169.824219 109.121094 181.957031 0.09375 L 240.851562 65.273438 C 240.851562 65.273438 291.757812 75.792969 307 105.714844 C 322.242188 135.640625 357.457031 177.855469 357.457031 177.855469 L 328.605469 114.75 C 328.605469 114.898438 370.628906 92.382812 427.894531 100.679688 Z M 427.894531 100.679688 " fill-opacity="1" fill-rule="nonzero"/><path fill="#000000" d="M 384.835938 328.066406 L 373.738281 311.03125 C 373.738281 311.03125 348.582031 326.882812 328.75 306.734375 C 308.921875 286.589844 321.648438 257.851562 321.648438 257.851562 L 307 247.035156 C 307 247.035156 291.164062 274.589844 305.371094 305.402344 C 318.394531 333.101562 350.652344 340.65625 384.835938 328.066406 Z M 384.835938 328.066406 " fill-opacity="1" fill-rule="nonzero"/><path fill="#000000" d="M 425.824219 319.179688 C 425.378906 319.03125 424.9375 319.03125 424.492188 319.03125 C 413.542969 317.992188 408.066406 329.992188 406.734375 339.027344 C 402 370.136719 408.363281 404.652344 425.675781 430.871094 C 428.636719 426.132812 430.707031 421.242188 432.484375 416.058594 C 433.960938 411.613281 437.070312 404.652344 436.921875 399.910156 C 439.882812 389.097656 441.804688 377.988281 442.398438 366.730469 C 443.136719 354.433594 443.285156 338.878906 436.921875 327.917969 C 434.554688 323.769531 430.558594 320.214844 425.824219 319.179688 Z M 425.824219 319.179688 " fill-opacity="1" fill-rule="nonzero"/></svg>