<svg xmlns="http://www.w3.org/2000/svg" xmlns:xlink="http://www.w3.org/1999/xlink" width="512" zoomAndPan="magnify" viewBox="0 0 384 383.999986" height="512" preserveAspectRatio="xMidYMid meet" version="1.0"><defs><clipPath id="1a340a8f5f"><path d="M 201.660156 163 L 338 163 L 338 355 L 201.660156 355 Z M 201.660156 163 " clip-rule="nonzero"/></clipPath><clipPath id="653190916f"><path d="M 201.660156 3.921875 L 384 3.921875 L 384 381.921875 L 201.660156 381.921875 Z M 201.660156 3.921875 " clip-rule="nonzero"/></clipPath><clipPath id="f0005ed057"><path d="M 8 7.839844 L 203 7.839844 L 203 377.589844 L 8 377.589844 Z M 8 7.839844 " clip-rule="nonzero"/></clipPath><clipPath id="b28e86c329"><path d="M 184 257 L 214.5 257 L 214.5 346 L 184 346 Z M 184 257 " clip-rule="nonzero"/></clipPath></defs><g clip-path="url(#1a340a8f5f)"><path fill="#000000" d="M 253.34375 224.917969 C 235.265625 241.378906 223.214844 267.578125 223.214844 267.578125 C 219.972656 249.726562 206.527344 249.027344 201.894531 249.492188 L 201.894531 258.304688 C 202.125 258.304688 202.589844 258.304688 202.820312 258.070312 C 211.394531 257.144531 215.800781 266.648438 216.726562 273.835938 C 220.433594 298.183594 215.566406 325.308594 201.894531 346.175781 L 201.894531 354.289062 C 211.164062 341.769531 251.257812 317.425781 268.640625 306.992188 C 287.414062 295.863281 331.214844 271.75 333.765625 244.390625 C 336.3125 217.035156 315.222656 191.296875 315.222656 191.296875 L 337.242188 163.9375 C 305.257812 178.082031 271.421875 208.453125 253.34375 224.917969 Z M 296.453125 247.175781 C 286.253906 269.199219 260.761719 275.230469 233.875 265.257812 L 242.683594 251.8125 C 242.683594 251.8125 262.613281 264.332031 278.140625 248.332031 C 293.671875 232.566406 283.703125 209.847656 283.703125 209.847656 L 295.292969 201.269531 C 295.292969 201.269531 307.574219 222.828125 296.453125 247.175781 Z M 296.453125 247.175781 " fill-opacity="1" fill-rule="nonzero"/></g><g clip-path="url(#653190916f)"><path fill="#000000" d="M 201.894531 3.960938 L 201.894531 86.269531 C 246.160156 80.472656 278.375 97.628906 278.375 97.628906 L 255.660156 147.246094 C 255.660156 147.246094 283.472656 114.089844 295.292969 90.441406 C 307.113281 66.792969 347.4375 58.445312 347.4375 58.445312 L 393.789062 7.207031 C 403.292969 92.992188 329.359375 147.015625 329.359375 147.015625 C 364.125 133.101562 384.289062 95.078125 384.289062 95.078125 C 387.300781 133.335938 344.195312 162.085938 344.195312 162.085938 C 387.765625 233.496094 351.84375 300.269531 351.84375 300.269531 C 373.394531 322.527344 381.277344 378.636719 381.277344 378.636719 C 381.277344 378.636719 352.304688 354.984375 305.953125 347.566406 C 264.003906 340.84375 211.628906 354.058594 201.660156 356.609375 L 201.660156 381.882812 L 579.660156 381.882812 L 579.660156 3.960938 Z M 201.894531 3.960938 " fill-opacity="1" fill-rule="nonzero"/></g><g clip-path="url(#f0005ed057)"><path fill="#000000" d="M 202.429688 86.710938 L 202.429688 249.171875 C 202.429688 249.171875 183.277344 245.574219 179.332031 267.042969 C 179.332031 267.042969 167.257812 241.050781 149.382812 224.6875 C 131.507812 208.324219 97.730469 178.035156 65.929688 164.113281 L 87.867188 191.265625 C 87.867188 191.265625 66.855469 216.796875 69.292969 244.066406 C 71.730469 271.222656 115.375 295.125 134.179688 306.265625 C 152.980469 317.40625 198.367188 345.023438 202.429688 356.164062 C 202.429688 356.164062 143.117188 339.222656 96.917969 346.648438 C 50.722656 354.078125 21.9375 377.519531 21.9375 377.519531 C 21.9375 377.519531 29.714844 321.933594 51.1875 299.652344 C 51.1875 299.652344 15.554688 233.273438 58.847656 162.253906 C 58.847656 162.253906 15.902344 133.476562 18.917969 95.53125 C 18.917969 95.53125 39 133.242188 73.589844 147.167969 C 73.589844 147.167969 0 93.324219 9.519531 7.914062 L 55.714844 58.976562 C 55.714844 58.976562 95.644531 67.214844 107.597656 90.65625 C 119.554688 114.097656 147.179688 147.167969 147.179688 147.167969 L 124.542969 97.734375 C 124.542969 97.851562 157.507812 80.210938 202.429688 86.710938 Z M 202.429688 86.710938 " fill-opacity="1" fill-rule="nonzero"/></g><path fill="#000000" d="M 168.652344 264.839844 L 159.945312 251.492188 C 159.945312 251.492188 140.214844 263.910156 124.660156 248.128906 C 109.105469 232.347656 119.089844 209.832031 119.089844 209.832031 L 107.597656 201.363281 C 107.597656 201.363281 95.179688 222.945312 106.320312 247.082031 C 116.535156 268.785156 141.839844 274.703125 168.652344 264.839844 Z M 168.652344 264.839844 " fill-opacity="1" fill-rule="nonzero"/><g clip-path="url(#b28e86c329)"><path fill="#000000" d="M 200.804688 257.875 C 200.457031 257.757812 200.105469 257.757812 199.757812 257.757812 C 191.167969 256.949219 186.875 266.347656 185.832031 273.425781 C 182.117188 297.796875 187.105469 324.832031 200.6875 345.375 C 203.007812 341.660156 204.632812 337.832031 206.027344 333.769531 C 207.1875 330.289062 209.625 324.832031 209.507812 321.121094 C 211.832031 312.648438 213.339844 303.945312 213.804688 295.125 C 214.382812 285.496094 214.5 273.308594 209.507812 264.722656 C 207.652344 261.472656 204.519531 258.6875 200.804688 257.875 Z M 200.804688 257.875 " fill-opacity="1" fill-rule="nonzero"/></g></svg>