<svg xmlns="http://www.w3.org/2000/svg" xmlns:xlink="http://www.w3.org/1999/xlink" width="512" zoomAndPan="magnify" viewBox="0 0 384 383.999986" height="512" preserveAspectRatio="xMidYMid meet" version="1.0"><rect x="-38.4" width="460.8" fill="#ffffff" y="-38.399999" height="460.799983" fill-opacity="1"/><rect x="-38.4" width="460.8" fill="#ffffff" y="-38.399999" height="460.799983" fill-opacity="1"/><path fill="#000000" d="M 186.28125 36.488281 C 185.335938 36.636719 184.734375 36.769531 184.519531 36.851562 C 184.398438 36.898438 184.199219 36.9375 184.078125 36.9375 C 183.957031 36.9375 183.824219 36.976562 183.796875 37.03125 C 183.769531 37.078125 183.636719 37.125 183.507812 37.125 C 183.382812 37.125 183.207031 37.164062 183.113281 37.210938 C 183.027344 37.257812 182.765625 37.351562 182.53125 37.40625 C 182.296875 37.472656 182.023438 37.554688 181.921875 37.59375 C 181.820312 37.632812 181.546875 37.714844 181.3125 37.78125 C 181.078125 37.835938 180.816406 37.929688 180.730469 37.976562 C 180.636719 38.023438 180.507812 38.0625 180.441406 38.0625 C 180.375 38.0625 180.140625 38.148438 179.925781 38.25 C 179.71875 38.351562 179.503906 38.4375 179.445312 38.4375 C 179.398438 38.4375 179.203125 38.511719 178.996094 38.617188 C 177.441406 39.375 176.53125 39.863281 176.15625 40.125 C 176.015625 40.226562 175.867188 40.3125 175.820312 40.3125 C 175.78125 40.3125 175.539062 40.472656 175.273438 40.679688 C 175.011719 40.875 174.648438 41.136719 174.460938 41.257812 C 173.484375 41.90625 171.039062 44.222656 170.277344 45.214844 C 170.128906 45.402344 169.78125 45.863281 169.492188 46.238281 C 168.964844 46.921875 167.625 48.890625 167.625 48.976562 C 167.625 49.003906 167.492188 49.246094 167.324219 49.519531 C 167.164062 49.789062 166.539062 50.980469 165.9375 52.171875 C 165.328125 53.351562 164.605469 54.769531 164.324219 55.3125 C 164.042969 55.855469 163.453125 56.992188 163.011719 57.84375 C 162.570312 58.695312 161.925781 59.933594 161.578125 60.609375 C 161.230469 61.273438 160.480469 62.738281 159.910156 63.84375 C 159.347656 64.949219 158.53125 66.535156 158.109375 67.359375 C 157.6875 68.183594 157.246094 69.039062 157.132812 69.253906 C 156.65625 70.210938 156.496094 70.527344 155.785156 71.90625 C 155.371094 72.703125 154.460938 74.492188 153.75 75.890625 C 153.046875 77.277344 152.371094 78.589844 152.25 78.796875 C 152.128906 79.003906 151.773438 79.679688 151.453125 80.296875 C 151.132812 80.914062 150.710938 81.710938 150.515625 82.078125 C 150.09375 82.847656 149.175781 84.617188 148.875 85.21875 C 148.761719 85.453125 148.601562 85.742188 148.539062 85.875 C 148.472656 86.007812 148.132812 86.679688 147.789062 87.375 C 147.449219 88.070312 147.121094 88.726562 147.066406 88.828125 C 147.007812 88.929688 146.429688 90.066406 145.773438 91.359375 C 145.125 92.644531 144.113281 94.632812 143.53125 95.765625 C 142.949219 96.898438 141.769531 99.214844 140.90625 100.921875 C 140.042969 102.617188 139.152344 104.351562 138.9375 104.765625 C 138.710938 105.179688 137.878906 106.820312 137.0625 108.421875 C 135.402344 111.695312 133.835938 114.757812 133.171875 116.015625 C 132.929688 116.476562 132.320312 117.65625 131.8125 118.640625 C 131.316406 119.617188 130.867188 120.507812 130.808594 120.609375 C 130.753906 120.710938 130.453125 121.304688 130.144531 121.921875 C 129.835938 122.539062 129.496094 123.214844 129.394531 123.421875 C 129.289062 123.628906 128.992188 124.21875 128.738281 124.734375 C 128.476562 125.25 128.0625 126.074219 127.800781 126.5625 C 127.546875 127.050781 127.078125 127.960938 126.75 128.578125 C 126.429688 129.195312 125.699219 130.613281 125.128906 131.71875 C 124.566406 132.824219 123.804688 134.304688 123.441406 135 C 123.085938 135.695312 122.464844 136.894531 122.0625 137.671875 C 121.667969 138.441406 121.164062 139.414062 120.9375 139.828125 C 120.722656 140.242188 120.066406 141.507812 119.484375 142.640625 C 118.902344 143.773438 117.9375 145.667969 117.328125 146.859375 C 116.71875 148.039062 115.726562 149.980469 115.125 151.171875 C 114.523438 152.351562 113.832031 153.695312 113.585938 154.144531 C 112.152344 156.863281 112.125 156.910156 111.300781 158.578125 C 110.945312 159.300781 110.390625 160.398438 110.0625 161.015625 C 108.945312 163.144531 108.535156 163.921875 107.625 165.703125 C 106.445312 168.007812 105.460938 169.902344 105.160156 170.4375 C 105.039062 170.671875 104.785156 171.132812 104.605469 171.46875 C 104.429688 171.804688 104.183594 172.246094 104.0625 172.453125 C 103.941406 172.660156 103.21875 174.074219 102.441406 175.59375 C 99.179688 182.007812 98.898438 182.550781 98.269531 183.65625 C 97.894531 184.3125 94.507812 191.007812 94.097656 191.90625 C 93.984375 192.140625 93.824219 192.429688 93.742188 192.5625 C 93.65625 192.695312 93.421875 193.117188 93.214844 193.5 C 93.007812 193.882812 92.738281 194.390625 92.605469 194.625 C 91.976562 195.757812 91.714844 196.246094 90.816406 198.007812 C 89.710938 200.175781 89.664062 200.257812 88.902344 201.796875 C 88.257812 203.101562 87.308594 204.910156 87 205.453125 C 86.878906 205.660156 86.539062 206.289062 86.25 206.859375 C 85.949219 207.421875 85.613281 208.058594 85.5 208.265625 C 85.378906 208.472656 84.789062 209.605469 84.1875 210.796875 C 83.117188 212.898438 82.660156 213.769531 82.03125 214.921875 C 81.863281 215.230469 81.355469 216.195312 80.90625 217.078125 C 78.5625 221.652344 78.007812 222.730469 77.8125 223.078125 C 77.691406 223.285156 77.4375 223.742188 77.25 224.109375 C 77.054688 224.464844 76.761719 225.019531 76.59375 225.328125 C 76.273438 225.910156 74.15625 230.042969 73.882812 230.617188 C 73.613281 231.207031 72.609375 233.183594 71.8125 234.703125 C 70.433594 237.375 68.371094 241.414062 67.238281 243.703125 C 66.234375 245.726562 63.890625 250.285156 63.394531 251.164062 C 62.914062 252.039062 60.253906 257.25 59.550781 258.703125 C 59.398438 259.011719 58.867188 260.0625 58.359375 261.046875 C 57.851562 262.023438 56.972656 263.757812 56.390625 264.890625 C 55.808594 266.023438 54.816406 267.964844 54.1875 269.203125 C 53.550781 270.441406 52.78125 271.960938 52.472656 272.578125 C 52.164062 273.195312 51.703125 274.125 51.441406 274.640625 C 51.1875 275.15625 50.382812 276.742188 49.660156 278.15625 C 48.9375 279.570312 48.273438 280.902344 48.167969 281.109375 C 48.074219 281.316406 47.945312 281.570312 47.886719 281.671875 C 47.820312 281.773438 47.617188 282.179688 47.410156 282.5625 C 47.203125 282.945312 46.828125 283.667969 46.566406 284.15625 C 45.945312 285.335938 44.738281 287.691406 42.9375 291.234375 C 42.121094 292.828125 41.222656 294.582031 40.929688 295.125 C 40.378906 296.175781 39.722656 297.496094 38.230469 300.5625 C 37.097656 302.878906 36.335938 304.40625 35.644531 305.71875 C 35.363281 306.261719 34.273438 308.390625 33.234375 310.453125 C 31.445312 313.996094 30.992188 314.878906 29.960938 316.78125 C 29.511719 317.625 27.214844 322.226562 27.09375 322.546875 C 27.046875 322.648438 26.925781 322.988281 26.8125 323.296875 C 26.699219 323.605469 26.570312 323.933594 26.523438 324.019531 C 26.476562 324.113281 26.4375 324.253906 26.4375 324.328125 C 26.4375 324.402344 26.390625 324.554688 26.34375 324.65625 C 26.289062 324.757812 26.210938 324.929688 26.15625 325.03125 C 26.109375 325.132812 26.0625 325.292969 26.0625 325.386719 C 26.0625 325.480469 26.023438 325.59375 25.988281 325.648438 C 25.941406 325.695312 25.808594 326.054688 25.695312 326.4375 C 25.574219 326.820312 25.445312 327.242188 25.40625 327.375 C 25.332031 327.601562 25.257812 327.9375 25.039062 329.042969 C 24.871094 329.859375 24.929688 330.636719 25.238281 331.828125 C 26.101562 335.183594 28.640625 337.800781 31.875 338.644531 C 32.765625 338.867188 34.171875 339.046875 36.375 339.1875 C 38.164062 339.308594 57.007812 339.226562 59.25 339.09375 C 62.007812 338.925781 63.910156 338.664062 64.734375 338.34375 C 64.835938 338.304688 65.089844 338.222656 65.296875 338.164062 C 65.503906 338.101562 65.765625 338.007812 65.886719 337.960938 C 66 337.914062 66.1875 337.835938 66.308594 337.789062 C 66.421875 337.734375 66.984375 337.480469 67.546875 337.21875 C 68.117188 336.957031 68.664062 336.703125 68.765625 336.65625 C 70.3125 336.007812 71.90625 335.183594 73.640625 334.132812 C 73.988281 333.917969 74.277344 333.75 74.296875 333.75 C 74.324219 333.75 75.722656 332.898438 77.390625 331.875 C 77.757812 331.648438 78.289062 331.3125 78.582031 331.117188 C 78.871094 330.910156 79.144531 330.75 79.171875 330.75 C 79.210938 330.75 79.40625 330.628906 79.621094 330.476562 C 79.941406 330.261719 83.316406 328.210938 84.421875 327.5625 C 84.984375 327.234375 86.304688 326.398438 86.832031 326.054688 C 87.121094 325.847656 87.382812 325.6875 87.421875 325.6875 C 87.46875 325.6875 87.816406 325.472656 89.617188 324.308594 C 90.039062 324.027344 90.523438 323.71875 90.695312 323.632812 C 91.273438 323.296875 92.304688 322.648438 92.832031 322.304688 C 93.121094 322.097656 93.394531 321.9375 93.421875 321.9375 C 93.449219 321.9375 93.777344 321.730469 94.152344 321.488281 C 94.800781 321.046875 95.820312 320.410156 96.429688 320.0625 C 96.589844 319.96875 97.011719 319.714844 97.367188 319.5 C 97.726562 319.273438 98.417969 318.863281 98.90625 318.5625 C 100.632812 317.511719 101.117188 317.222656 101.644531 316.867188 C 101.933594 316.660156 102.207031 316.5 102.234375 316.5 C 102.273438 316.5 102.46875 316.378906 102.683594 316.226562 C 102.898438 316.078125 103.226562 315.871094 103.40625 315.777344 C 103.585938 315.675781 104.082031 315.375 104.511719 315.101562 C 104.945312 314.839844 105.320312 314.625 105.335938 314.625 C 105.367188 314.625 105.636719 314.457031 105.9375 314.25 C 106.238281 314.042969 106.507812 313.875 106.546875 313.875 C 106.574219 313.875 106.941406 313.648438 107.371094 313.367188 C 108.515625 312.628906 109.648438 311.914062 110.679688 311.304688 C 110.933594 311.148438 111.441406 310.828125 111.816406 310.574219 C 112.191406 310.332031 112.519531 310.125 112.546875 310.125 C 112.574219 310.125 113.15625 309.75 113.839844 309.300781 C 115.070312 308.476562 116.605469 307.5 116.671875 307.5 C 116.699219 307.5 117.179688 307.199219 117.757812 306.84375 C 118.332031 306.476562 118.820312 306.1875 118.835938 306.1875 C 118.867188 306.1875 119.257812 305.933594 119.71875 305.625 C 120.167969 305.316406 120.683594 304.988281 120.863281 304.894531 C 121.226562 304.679688 122.257812 304.039062 123.730469 303.113281 C 124.320312 302.738281 124.820312 302.4375 124.835938 302.4375 C 124.867188 302.4375 125.195312 302.222656 125.578125 301.96875 C 125.960938 301.707031 126.300781 301.5 126.328125 301.5 C 126.375 301.5 126.796875 301.238281 128.222656 300.308594 C 128.652344 300.039062 129.019531 299.8125 129.046875 299.8125 C 129.074219 299.8125 129.414062 299.597656 129.796875 299.34375 C 130.179688 299.082031 130.519531 298.875 130.546875 298.875 C 130.585938 298.875 130.78125 298.753906 130.996094 298.601562 C 131.210938 298.453125 131.539062 298.246094 131.71875 298.144531 C 131.898438 298.039062 132.609375 297.617188 133.304688 297.195312 C 133.988281 296.785156 134.570312 296.4375 134.585938 296.4375 C 134.605469 296.4375 134.914062 296.25 135.261719 296.035156 C 135.609375 295.808594 136.3125 295.359375 136.828125 295.03125 C 137.34375 294.703125 138.046875 294.253906 138.394531 294.027344 C 138.742188 293.8125 139.050781 293.625 139.078125 293.625 C 139.117188 293.625 139.386719 293.457031 139.6875 293.25 C 139.988281 293.042969 140.257812 292.875 140.296875 292.875 C 140.324219 292.875 140.691406 292.648438 141.121094 292.378906 C 142.847656 291.253906 143.277344 290.980469 143.558594 290.820312 C 143.726562 290.726562 144.214844 290.429688 144.65625 290.15625 C 145.914062 289.378906 146.625 288.9375 146.945312 288.75 C 147.523438 288.421875 148.554688 287.773438 149.082031 287.429688 C 149.371094 287.222656 149.644531 287.0625 149.671875 287.0625 C 149.699219 287.0625 150.28125 286.6875 150.964844 286.238281 C 151.640625 285.777344 152.476562 285.234375 152.8125 285.027344 C 153.148438 284.820312 153.769531 284.4375 154.199219 284.175781 C 155.878906 283.117188 156.523438 282.710938 156.84375 282.535156 C 157.023438 282.441406 157.285156 282.273438 157.425781 282.179688 C 157.554688 282.074219 157.695312 282 157.734375 282 C 157.761719 282 157.976562 281.878906 158.203125 281.71875 C 158.429688 281.570312 158.632812 281.4375 158.671875 281.4375 C 158.746094 281.4375 160.085938 280.539062 160.59375 280.132812 C 161.324219 279.570312 162.375 278.503906 162.742188 277.96875 C 163.304688 277.152344 163.6875 275.851562 163.6875 274.773438 C 163.6875 274.144531 163.648438 273.917969 163.378906 272.953125 C 163.070312 271.835938 161.0625 269.71875 159.703125 269.070312 C 158.839844 268.667969 158.972656 268.695312 157.03125 268.433594 C 155.972656 268.304688 154.3125 268.285156 140.296875 268.304688 C 125.070312 268.320312 122.101562 268.273438 120.84375 268.023438 C 119.335938 267.703125 117.890625 266.632812 117.289062 265.359375 C 116.710938 264.140625 116.699219 264.121094 116.652344 262.03125 C 116.585938 259.648438 116.859375 258.101562 117.636719 256.359375 C 117.9375 255.703125 119.417969 252.75 120 251.671875 C 121.171875 249.476562 121.632812 248.597656 122.324219 247.171875 C 122.578125 246.65625 122.960938 245.898438 123.1875 245.484375 C 123.414062 245.070312 124.039062 243.84375 124.59375 242.765625 C 125.136719 241.679688 125.691406 240.628906 125.8125 240.421875 C 125.925781 240.214844 126.441406 239.222656 126.957031 238.21875 C 127.472656 237.214844 127.929688 236.34375 127.96875 236.296875 C 128.035156 236.203125 128.492188 235.339844 130.125 232.171875 C 131.25 229.988281 131.972656 228.601562 132.085938 228.414062 C 132.132812 228.308594 132.421875 227.726562 132.730469 227.109375 C 133.039062 226.492188 133.460938 225.648438 133.6875 225.234375 C 134.089844 224.484375 135.007812 222.65625 135.355469 221.953125 C 135.683594 221.269531 138.535156 215.679688 138.75 215.296875 C 138.871094 215.089844 139.546875 213.777344 140.25 212.390625 C 140.960938 210.992188 141.675781 209.605469 141.84375 209.296875 C 142.152344 208.714844 143.0625 206.972656 144.421875 204.328125 C 144.851562 203.503906 145.554688 202.132812 145.988281 201.28125 C 146.429688 200.429688 146.953125 199.414062 147.160156 199.03125 C 147.628906 198.160156 147.976562 197.464844 148.539062 196.3125 C 148.78125 195.824219 149.183594 195.039062 149.4375 194.578125 C 149.691406 194.109375 150.113281 193.292969 150.375 192.75 C 151.378906 190.714844 151.949219 189.589844 152.242188 189.054688 C 152.410156 188.757812 152.945312 187.742188 153.421875 186.804688 C 153.898438 185.878906 154.472656 184.773438 154.6875 184.359375 C 154.914062 183.945312 155.203125 183.375 155.335938 183.09375 C 155.746094 182.242188 158.195312 177.402344 160.085938 173.71875 C 160.398438 173.128906 160.753906 172.386719 160.875 172.078125 C 160.996094 171.769531 161.257812 171.214844 161.445312 170.859375 C 162.054688 169.6875 162.582031 168.703125 162.65625 168.609375 C 162.722656 168.523438 163.085938 167.832031 164.839844 164.4375 C 165.664062 162.84375 165.789062 162.601562 166.492188 161.15625 C 166.753906 160.613281 167.035156 160.070312 167.109375 159.9375 C 167.183594 159.804688 167.363281 159.449219 167.511719 159.140625 C 167.886719 158.382812 169.199219 155.820312 169.640625 155.015625 C 169.835938 154.648438 170.183594 154.003906 170.417969 153.5625 C 170.914062 152.625 173.492188 147.488281 174.074219 146.289062 C 174.441406 145.519531 174.648438 145.132812 175.144531 144.28125 C 175.585938 143.539062 177.664062 139.492188 179.082031 136.640625 C 179.382812 136.023438 179.679688 135.429688 179.738281 135.328125 C 179.867188 135.113281 181.144531 132.601562 181.59375 131.71875 C 181.96875 130.960938 182.035156 130.847656 182.304688 130.339844 C 183.1875 128.738281 183.367188 128.4375 183.664062 127.996094 C 183.816406 127.78125 183.9375 127.574219 183.9375 127.539062 C 183.9375 127.339844 185.945312 124.808594 186.542969 124.246094 C 187.238281 123.601562 188.054688 123.1875 188.625 123.1875 C 189.101562 123.1875 189.804688 123.496094 190.507812 124.023438 C 191.089844 124.445312 191.832031 125.363281 192.355469 126.289062 C 192.460938 126.476562 192.601562 126.730469 192.675781 126.851562 C 192.742188 126.976562 192.816406 127.097656 192.84375 127.125 C 192.871094 127.152344 192.984375 127.339844 193.097656 127.546875 C 193.304688 127.929688 193.539062 128.371094 193.882812 128.972656 C 194.109375 129.355469 194.726562 130.527344 195.5625 132.140625 C 195.863281 132.703125 196.238281 133.425781 196.40625 133.734375 C 196.574219 134.042969 198.054688 136.949219 199.6875 140.203125 C 202.667969 146.128906 203.605469 147.964844 203.980469 148.613281 C 204.507812 149.511719 204.617188 149.726562 205.03125 150.5625 C 206.257812 153.019531 208.789062 158.007812 209.503906 159.375 C 210.382812 161.042969 210.710938 161.671875 210.84375 161.90625 C 210.910156 162.039062 211.011719 162.226562 211.058594 162.320312 C 211.105469 162.421875 211.914062 164.007812 212.839844 165.835938 C 213.769531 167.671875 216.054688 172.210938 217.921875 175.921875 C 221.558594 183.148438 223.386719 186.757812 224.109375 188.109375 C 224.351562 188.570312 224.945312 189.710938 225.421875 190.640625 C 225.898438 191.570312 226.433594 192.601562 226.613281 192.9375 C 227.4375 194.476562 227.8125 195.167969 227.980469 195.515625 C 229.867188 199.332031 231.242188 202.050781 232.03125 203.484375 C 232.199219 203.792969 233.511719 206.363281 234.9375 209.203125 C 236.363281 212.035156 237.628906 214.527344 237.75 214.734375 C 237.871094 214.941406 238.21875 215.597656 238.527344 216.1875 C 238.835938 216.777344 239.257812 217.585938 239.464844 217.96875 C 239.820312 218.625 240.816406 220.574219 243.851562 226.59375 C 244.546875 227.960938 245.128906 229.097656 245.15625 229.125 C 245.183594 229.152344 245.886719 230.523438 246.710938 232.171875 C 247.546875 233.820312 248.738281 236.183594 249.375 237.421875 C 250.003906 238.660156 251.183594 240.976562 251.992188 242.578125 C 252.804688 244.171875 253.507812 245.570312 253.574219 245.671875 C 253.679688 245.867188 254.390625 247.40625 254.523438 247.734375 C 254.570312 247.835938 254.652344 248.042969 254.71875 248.203125 C 254.785156 248.351562 254.867188 248.570312 254.90625 248.671875 C 254.945312 248.773438 255.074219 249.066406 255.1875 249.328125 C 255.300781 249.582031 255.429688 249.882812 255.46875 249.984375 C 255.507812 250.085938 255.636719 250.378906 255.75 250.640625 C 256.554688 252.421875 256.988281 254.195312 257.128906 256.21875 C 257.324219 259.105469 257.128906 263.203125 256.6875 265.359375 C 256.640625 265.613281 256.566406 265.988281 256.539062 266.183594 C 256.5 266.382812 256.433594 266.558594 256.398438 266.585938 C 256.351562 266.617188 256.3125 266.757812 256.3125 266.90625 C 256.3125 267.054688 256.273438 267.207031 256.21875 267.234375 C 256.171875 267.261719 256.125 267.394531 256.125 267.523438 C 256.125 267.648438 256.085938 267.824219 256.039062 267.917969 C 255.992188 268.003906 255.863281 268.398438 255.742188 268.78125 C 255.628906 269.164062 255.496094 269.523438 255.46875 269.578125 C 255.441406 269.625 255.308594 269.992188 255.1875 270.375 C 255.066406 270.757812 254.933594 271.117188 254.886719 271.171875 C 254.851562 271.21875 254.8125 271.332031 254.8125 271.425781 C 254.8125 271.519531 254.773438 271.667969 254.726562 271.761719 C 254.652344 271.921875 254.523438 272.222656 254.351562 272.644531 C 253.847656 273.957031 252.476562 276.601562 251.644531 277.867188 C 251.457031 278.15625 251.257812 278.464844 251.203125 278.550781 C 250.050781 280.398438 247.257812 283.613281 244.96875 285.703125 C 241.921875 288.488281 237.460938 291.320312 234.234375 292.5 C 233.570312 292.742188 233.257812 292.867188 233.042969 292.976562 C 232.949219 293.023438 232.808594 293.0625 232.734375 293.0625 C 232.660156 293.0625 232.519531 293.101562 232.425781 293.148438 C 232.210938 293.257812 231.863281 293.390625 231.46875 293.53125 C 231.289062 293.597656 231.054688 293.679688 230.953125 293.71875 C 230.851562 293.757812 230.445312 293.886719 230.0625 294 C 229.679688 294.113281 229.257812 294.242188 229.125 294.28125 C 228.992188 294.328125 228.65625 294.414062 228.375 294.46875 C 228.09375 294.523438 227.726562 294.617188 227.570312 294.664062 C 227.410156 294.710938 227.15625 294.75 227.007812 294.75 C 226.855469 294.75 226.585938 294.796875 226.40625 294.863281 C 226.164062 294.9375 222.796875 294.964844 213.65625 294.976562 C 201.675781 294.984375 201.226562 294.992188 200.878906 295.164062 C 200.679688 295.257812 200.410156 295.492188 200.269531 295.679688 C 200.136719 295.867188 199.867188 296.203125 199.679688 296.4375 C 199.359375 296.832031 199.078125 297.320312 198.695312 298.164062 C 198.496094 298.601562 198.46875 299.523438 198.648438 300.113281 C 198.816406 300.65625 198.9375 301.039062 199.03125 301.265625 C 199.078125 301.367188 199.179688 301.640625 199.265625 301.875 C 199.425781 302.296875 199.546875 302.585938 199.882812 303.355469 C 199.976562 303.570312 200.136719 303.929688 200.242188 304.152344 C 200.492188 304.714844 201.308594 306.355469 201.5625 306.796875 C 201.683594 307.003906 202.050781 307.695312 202.386719 308.34375 C 202.714844 308.992188 203.082031 309.683594 203.203125 309.890625 C 203.738281 310.847656 203.851562 311.035156 204.007812 311.269531 C 204.113281 311.398438 204.1875 311.539062 204.1875 311.578125 C 204.1875 311.605469 204.308594 311.8125 204.460938 312.027344 C 204.609375 312.242188 204.816406 312.582031 204.929688 312.777344 C 205.03125 312.964844 205.21875 313.285156 205.332031 313.472656 C 205.445312 313.667969 205.585938 313.929688 205.648438 314.0625 C 205.761719 314.289062 206.617188 315.535156 207.554688 316.875 C 210.132812 320.558594 214.960938 325.988281 217.921875 328.539062 C 218.765625 329.269531 220.5 330.601562 221.203125 331.058594 C 221.410156 331.191406 222.007812 331.601562 222.542969 331.96875 C 223.078125 332.324219 223.527344 332.625 223.546875 332.625 C 223.554688 332.625 223.855469 332.792969 224.203125 333.007812 C 225.046875 333.515625 225.261719 333.636719 226.359375 334.199219 C 227.34375 334.707031 228.898438 335.4375 228.984375 335.4375 C 229.011719 335.4375 229.238281 335.523438 229.480469 335.632812 C 229.726562 335.746094 230.015625 335.867188 230.136719 335.914062 C 230.25 335.960938 230.4375 336.039062 230.558594 336.085938 C 230.671875 336.132812 230.914062 336.214844 231.09375 336.28125 C 231.414062 336.394531 231.617188 336.46875 232.058594 336.648438 C 232.566406 336.863281 235.707031 337.929688 236.25 338.082031 C 236.785156 338.222656 237.9375 338.511719 238.5 338.632812 C 239.550781 338.867188 241.566406 339.074219 243.703125 339.167969 C 246.28125 339.273438 341.785156 339.132812 342.796875 339.019531 C 344.117188 338.867188 345.160156 338.679688 345.542969 338.523438 C 345.65625 338.476562 345.863281 338.390625 346.011719 338.335938 C 347.34375 337.789062 349.003906 336.460938 349.988281 335.148438 C 350.269531 334.773438 350.851562 333.664062 351.09375 333.046875 C 351.207031 332.765625 351.347656 332.175781 351.476562 331.527344 C 351.675781 330.496094 351.402344 328.453125 350.8125 326.390625 C 350.746094 326.183594 350.679688 325.875 350.652344 325.707031 C 350.625 325.539062 350.570312 325.378906 350.523438 325.351562 C 350.476562 325.320312 350.4375 325.199219 350.4375 325.078125 C 350.4375 324.957031 350.398438 324.757812 350.351562 324.636719 C 350.304688 324.515625 350.210938 324.234375 350.15625 324 C 349.847656 322.902344 349.6875 322.480469 349.199219 321.515625 C 348.167969 319.480469 347.785156 318.710938 347.503906 318.09375 C 346.921875 316.828125 346.78125 316.554688 346.40625 315.890625 C 346.03125 315.226562 345.046875 313.246094 344.898438 312.863281 C 344.851562 312.75 344.773438 312.5625 344.726562 312.441406 C 344.679688 312.328125 344.464844 311.878906 344.25 311.4375 C 343.285156 309.515625 342.320312 307.585938 341.960938 306.84375 C 341.757812 306.402344 341.558594 306.027344 341.53125 306 C 341.503906 305.972656 341.429688 305.851562 341.363281 305.726562 C 341.070312 305.222656 340.882812 304.894531 340.632812 304.453125 C 340.359375 303.984375 339.890625 303.046875 339.542969 302.25 C 339.441406 302.015625 339.308594 301.742188 339.253906 301.640625 C 339.195312 301.539062 339 301.152344 338.8125 300.796875 C 338.164062 299.570312 338.015625 299.296875 337.96875 299.25 C 337.941406 299.222656 337.519531 298.398438 337.03125 297.421875 C 336.554688 296.4375 336.074219 295.527344 335.980469 295.398438 C 335.699219 294.976562 334.882812 293.410156 333.992188 291.5625 C 333.804688 291.179688 333.488281 290.558594 333.28125 290.203125 C 333.074219 289.835938 332.585938 288.890625 332.195312 288.09375 C 331.125 285.929688 330.992188 285.664062 330.65625 285.046875 C 330.355469 284.492188 329.296875 282.421875 326.484375 276.890625 C 324.863281 273.703125 323.878906 271.808594 322.976562 270.160156 C 322.285156 268.882812 322.125 268.566406 322.125 268.445312 C 322.125 268.367188 322.085938 268.3125 322.03125 268.3125 C 321.984375 268.3125 321.9375 268.257812 321.9375 268.191406 C 321.9375 268.078125 319.144531 262.480469 318.375 261.046875 C 318.148438 260.632812 317.4375 259.238281 316.78125 257.953125 C 314.558594 253.59375 313.339844 251.203125 312.9375 250.453125 C 312.710938 250.039062 311.664062 247.96875 310.59375 245.859375 C 309.523438 243.742188 308.429688 241.59375 308.15625 241.078125 C 306.992188 238.902344 306.582031 238.097656 305.015625 234.9375 C 302.886719 230.671875 301.855469 228.636719 301.320312 227.691406 C 301.21875 227.492188 301.125 227.277344 301.125 227.203125 C 301.125 227.128906 301.085938 227.0625 301.03125 227.0625 C 300.984375 227.0625 300.9375 227.007812 300.9375 226.941406 C 300.9375 226.820312 300.195312 225.328125 299.34375 223.734375 C 299.070312 223.21875 298.679688 222.460938 298.472656 222.046875 C 297.957031 220.996094 297.742188 220.574219 297.226562 219.609375 C 296.992188 219.140625 296.398438 218.007812 295.921875 217.078125 C 295.445312 216.148438 294.898438 215.089844 294.703125 214.734375 C 294.148438 213.722656 290.101562 205.753906 288.449219 202.453125 C 286.425781 198.402344 284.269531 194.148438 284.164062 194.035156 C 283.988281 193.808594 282.957031 191.8125 282.535156 190.875 C 282.289062 190.320312 281.90625 189.542969 281.558594 188.90625 C 281.398438 188.625 281.175781 188.203125 281.054688 187.96875 C 280.929688 187.734375 280.808594 187.527344 280.78125 187.5 C 280.726562 187.445312 280.210938 186.375 279.917969 185.71875 C 279.816406 185.484375 279.683594 185.210938 279.628906 185.109375 C 279.1875 184.285156 278.992188 183.917969 278.765625 183.515625 C 278.625 183.253906 278.398438 182.859375 278.277344 182.625 C 278.148438 182.390625 278.007812 182.164062 277.960938 182.109375 C 277.914062 182.0625 277.875 181.960938 277.875 181.875 C 277.875 181.800781 277.789062 181.632812 277.6875 181.5 C 277.585938 181.367188 277.5 181.191406 277.5 181.097656 C 277.5 181.011719 277.460938 180.9375 277.40625 180.9375 C 277.359375 180.9375 277.3125 180.882812 277.3125 180.804688 C 277.3125 180.683594 276.964844 180 276.160156 178.5 C 275.914062 178.058594 275.417969 177.09375 275.054688 176.34375 C 274.6875 175.59375 274.265625 174.75 274.125 174.46875 C 273.984375 174.1875 273.710938 173.652344 273.515625 173.296875 C 273.320312 172.929688 272.625 171.582031 271.96875 170.296875 C 268.835938 164.148438 267.710938 161.925781 267.542969 161.578125 C 267.449219 161.371094 267.328125 161.128906 267.273438 161.035156 C 267.226562 160.941406 266.90625 160.332031 266.558594 159.675781 C 266.222656 159.019531 265.726562 158.0625 265.453125 157.546875 C 265.179688 157.03125 264.683594 156.085938 264.355469 155.4375 C 264.019531 154.789062 263.585938 153.964844 263.390625 153.609375 C 262.941406 152.785156 262.59375 152.082031 262.265625 151.359375 C 261.929688 150.628906 261.414062 149.597656 260.859375 148.546875 C 260.4375 147.757812 258.984375 144.910156 257.644531 142.265625 C 257.324219 141.648438 256.921875 140.820312 256.742188 140.4375 C 256.554688 140.054688 256.257812 139.460938 256.070312 139.125 C 255.507812 138.132812 255.207031 137.558594 254.4375 136.078125 C 254.035156 135.300781 253.527344 134.335938 253.3125 133.921875 C 252.804688 132.976562 251.117188 129.675781 249.066406 125.625 C 246.929688 121.414062 246.75 121.050781 246.195312 119.90625 C 245.726562 118.941406 245.25 118.03125 245.15625 117.9375 C 245.128906 117.910156 244.988281 117.65625 244.835938 117.375 C 244.6875 117.09375 244.460938 116.671875 244.332031 116.4375 C 243.964844 115.78125 242.617188 113.128906 240.09375 108.140625 C 238.820312 105.609375 237.617188 103.246094 237.421875 102.890625 C 236.980469 102.085938 234.429688 97.070312 233.183594 94.546875 C 232.640625 93.460938 232.144531 92.53125 232.03125 92.390625 C 231.863281 92.183594 231.382812 91.257812 230.089844 88.640625 C 229.6875 87.816406 229.171875 86.804688 228.964844 86.390625 C 228.75 85.976562 228.402344 85.257812 228.1875 84.796875 C 227.757812 83.878906 227.597656 83.558594 227.035156 82.5 C 226.828125 82.117188 226.164062 80.820312 225.5625 79.640625 C 221.8125 72.28125 221.617188 71.898438 221.53125 71.8125 C 221.503906 71.785156 221.296875 71.410156 221.070312 70.96875 C 220.855469 70.527344 220.554688 69.9375 220.40625 69.65625 C 220.265625 69.375 220.023438 68.886719 219.863281 68.578125 C 219.710938 68.269531 219.402344 67.679688 219.1875 67.265625 C 218.792969 66.542969 217.855469 64.660156 216.757812 62.4375 C 216.46875 61.847656 216.09375 61.105469 215.933594 60.796875 C 215.773438 60.488281 215.511719 59.960938 215.34375 59.625 C 212.8125 54.570312 210.65625 50.429688 209.972656 49.3125 C 209.765625 48.976562 209.523438 48.554688 209.417969 48.375 C 209.070312 47.773438 207.09375 45.148438 206.726562 44.8125 C 206.691406 44.785156 206.382812 44.445312 206.015625 44.0625 C 205.332031 43.332031 204.121094 42.242188 203.195312 41.523438 C 202.351562 40.875 201.683594 40.433594 200.296875 39.636719 C 199.601562 39.242188 198.09375 38.539062 197.484375 38.335938 C 197.277344 38.269531 197.070312 38.175781 197.015625 38.136719 C 196.96875 38.101562 196.835938 38.0625 196.726562 38.0625 C 196.601562 38.0625 196.492188 38.023438 196.460938 37.976562 C 196.433594 37.929688 196.292969 37.875 196.152344 37.847656 C 195.910156 37.800781 195.675781 37.734375 194.8125 37.492188 C 194.632812 37.433594 194.335938 37.359375 194.15625 37.3125 C 193.976562 37.273438 193.554688 37.164062 193.21875 37.078125 C 192.28125 36.84375 191.914062 36.769531 191.203125 36.65625 C 190.847656 36.601562 190.320312 36.507812 190.039062 36.460938 C 189.414062 36.355469 186.976562 36.367188 186.28125 36.488281 Z M 186.28125 36.488281 " fill-opacity="1" fill-rule="nonzero"/><path fill="#000000" d="M 183.984375 196.425781 C 183.140625 196.546875 182.417969 196.695312 182.175781 196.789062 C 182.054688 196.835938 181.855469 196.875 181.734375 196.875 C 181.613281 196.875 181.480469 196.914062 181.453125 196.96875 C 181.425781 197.015625 181.273438 197.0625 181.132812 197.0625 C 180.992188 197.0625 180.84375 197.101562 180.796875 197.136719 C 180.742188 197.183594 180.382812 197.316406 180 197.4375 C 179.617188 197.558594 179.257812 197.691406 179.210938 197.738281 C 179.15625 197.773438 179.0625 197.8125 178.996094 197.8125 C 178.921875 197.8125 178.6875 197.898438 178.480469 198 C 178.265625 198.101562 178.03125 198.1875 177.964844 198.1875 C 177.898438 198.1875 177.703125 198.273438 177.515625 198.375 C 177.328125 198.476562 177.132812 198.5625 177.066406 198.5625 C 176.867188 198.5625 173.992188 200.054688 173.417969 200.457031 C 173.289062 200.550781 173.148438 200.625 173.117188 200.625 C 173.007812 200.625 170.746094 202.164062 170.109375 202.679688 C 168.683594 203.820312 166.902344 205.679688 165.695312 207.289062 C 165.027344 208.164062 163.660156 210.1875 163.320312 210.769531 C 163.226562 210.9375 162.945312 211.433594 162.695312 211.875 C 162.441406 212.316406 162.1875 212.773438 162.132812 212.90625 C 162.074219 213.039062 161.933594 213.328125 161.820312 213.542969 C 161.71875 213.769531 161.625 214.03125 161.625 214.125 C 161.625 214.226562 161.585938 214.332031 161.53125 214.359375 C 161.484375 214.386719 161.4375 214.5 161.4375 214.601562 C 161.4375 214.695312 161.398438 214.855469 161.351562 214.949219 C 161.304688 215.035156 161.210938 215.296875 161.15625 215.53125 C 161.089844 215.765625 161.007812 216.054688 160.96875 216.1875 C 160.929688 216.320312 160.847656 216.609375 160.78125 216.84375 C 160.726562 217.078125 160.632812 217.398438 160.585938 217.554688 C 160.539062 217.714844 160.5 217.929688 160.5 218.042969 C 160.5 218.148438 160.460938 218.269531 160.40625 218.296875 C 160.359375 218.324219 160.3125 218.492188 160.3125 218.671875 C 160.3125 218.851562 160.273438 219.007812 160.226562 219.039062 C 160.179688 219.066406 160.125 219.226562 160.097656 219.394531 C 160.070312 219.5625 159.992188 219.890625 159.9375 220.125 C 159.757812 220.835938 159.496094 222.054688 159.355469 222.796875 C 159.207031 223.554688 159.207031 226.078125 159.355469 227.0625 C 159.636719 229.023438 160.03125 230.933594 160.226562 231.300781 C 160.273438 231.394531 160.3125 231.535156 160.3125 231.628906 C 160.3125 231.710938 160.351562 231.910156 160.398438 232.070312 C 160.445312 232.226562 160.539062 232.546875 160.59375 232.78125 C 160.660156 233.015625 160.742188 233.304688 160.78125 233.4375 C 160.820312 233.570312 160.949219 233.992188 161.0625 234.375 C 161.175781 234.757812 161.304688 235.164062 161.34375 235.265625 C 161.382812 235.367188 161.464844 235.601562 161.53125 235.78125 C 161.820312 236.625 163.058594 239.101562 163.507812 239.738281 C 163.613281 239.867188 163.6875 240.007812 163.6875 240.039062 C 163.6875 240.261719 165.496094 242.765625 166.679688 244.171875 C 168.382812 246.214844 170.945312 248.390625 173.007812 249.5625 C 173.195312 249.664062 173.492188 249.835938 173.671875 249.9375 C 174.535156 250.433594 174.757812 250.546875 175.679688 251.015625 C 177.273438 251.804688 178.539062 252.375 178.714844 252.375 C 178.78125 252.375 178.875 252.414062 178.929688 252.449219 C 178.976562 252.496094 179.203125 252.582031 179.4375 252.648438 C 179.671875 252.710938 179.945312 252.804688 180.046875 252.84375 C 180.148438 252.890625 180.335938 252.945312 180.46875 252.964844 C 180.601562 252.992188 180.957031 253.078125 181.265625 253.152344 C 181.574219 253.226562 182.082031 253.339844 182.390625 253.40625 C 182.699219 253.460938 183.121094 253.546875 183.328125 253.59375 C 183.703125 253.679688 184.367188 253.773438 185.90625 253.976562 C 186.796875 254.089844 190.21875 254.035156 191.296875 253.894531 C 192.113281 253.78125 193.039062 253.621094 193.59375 253.507812 C 193.828125 253.453125 194.148438 253.386719 194.296875 253.359375 C 195.441406 253.125 196.894531 252.722656 197.484375 252.46875 C 198.929688 251.867188 201.414062 250.679688 202.265625 250.179688 C 202.761719 249.890625 203.136719 249.675781 203.679688 249.375 C 204.28125 249.027344 205.425781 248.242188 206.539062 247.398438 C 208.359375 246.007812 210.308594 243.851562 211.96875 241.359375 C 212.972656 239.859375 213.308594 239.269531 214.085938 237.65625 C 214.679688 236.429688 214.78125 236.203125 214.960938 235.753906 C 214.996094 235.640625 215.082031 235.445312 215.136719 235.3125 C 215.195312 235.179688 215.277344 234.929688 215.335938 234.75 C 215.390625 234.570312 215.511719 234.167969 215.605469 233.859375 C 215.832031 233.164062 216 232.519531 216.460938 230.644531 C 216.601562 230.089844 216.871094 228.675781 217.023438 227.71875 C 217.3125 225.929688 217.210938 223.367188 216.757812 221.25 C 216.675781 220.855469 216.617188 220.621094 216.375 219.65625 C 216.328125 219.449219 216.242188 219.121094 216.195312 218.925781 C 216.148438 218.738281 216.066406 218.429688 216.007812 218.25 C 215.792969 217.492188 215.699219 217.164062 215.664062 216.9375 C 215.632812 216.804688 215.578125 216.617188 215.539062 216.515625 C 215.492188 216.414062 215.410156 216.160156 215.351562 215.953125 C 215.230469 215.570312 215.101562 215.230469 214.960938 214.949219 C 214.914062 214.855469 214.875 214.742188 214.875 214.6875 C 214.875 214.507812 213.882812 212.410156 213.402344 211.59375 C 213.121094 211.117188 212.898438 210.710938 212.617188 210.207031 C 211.828125 208.820312 209.953125 206.371094 208.660156 205.050781 C 206.023438 202.351562 202.191406 199.753906 199.078125 198.5625 C 198.769531 198.441406 198.476562 198.320312 198.421875 198.28125 C 198.375 198.253906 198.140625 198.160156 197.90625 198.09375 C 197.671875 198.027344 197.445312 197.945312 197.390625 197.90625 C 197.34375 197.867188 197.109375 197.792969 196.875 197.71875 C 196.640625 197.652344 196.414062 197.558594 196.359375 197.511719 C 196.3125 197.476562 196.179688 197.4375 196.070312 197.4375 C 195.945312 197.4375 195.835938 197.398438 195.804688 197.351562 C 195.777344 197.304688 195.636719 197.25 195.496094 197.222656 C 195.347656 197.195312 194.960938 197.109375 194.625 197.023438 C 193.199219 196.660156 192.523438 196.527344 191.390625 196.40625 C 190.285156 196.292969 184.789062 196.304688 183.984375 196.425781 Z M 183.984375 196.425781 " fill-opacity="1" fill-rule="nonzero"/></svg>